# xmcd
#
# Track frame offsets:
#	150
#	17115
#	33650
#	46930
#	61940
#	78875
#	91400
#	104637
#	120162
#	138062
#	149772
#	168032
#	187135
#	200897
#	218600
#	234767
#	249625
#	263875
#	284622
#
# Disc length: 3978 seconds
#
# Revision: 7
# Processed by: cddbd v1.5.2PL0 Copyright (c) Steve Scherf et al.
# Submitted via: audiograbber 1.83.01
#
DISCID=110f8813
DTITLE=Various Artist - CDX  137
DYEAR=1996
DGENRE=Country
TTITLE0=Randy Travis - Are We In Trouble Now
TTITLE1=Shanandoah - Deeper Than That
TTITLE2=The Geezinslaws - Five Dollar Fine
TTITLE3=Mindy McReady - Guys Do It All The Time
TTITLE4=Davis Daniel - I'm Not Listening Anymore
TTITLE5=John Anderson - My Kind Of Crazy
TTITLE6=Keith Gattis - Real Deal (Edit)
TTITLE7=Jeffrey Steele - Roots Of Country
TTITLE8=Bellamy Brothers - Shine Them Buckles
TTITLE9=Bryan White  - So Much For Pretending (Single Version)
TTITLE10=Terri Clark - Suddenly Single
TTITLE11=4 Runner - That Was Him (This Is Now)
TTITLE12=Joe Diffie - Whole Lotta Gone
TTITLE13=Larry Stewart - Why Can't You
TTITLE14=Dance Chance - You Know How To Get To My Heart
TTITLE15=Joe Nichols - Six Of One, Half A Dozen (Of The Other)
TTITLE16=Steven Craig Harding - Tonight My Heart Rides Again
TTITLE17=Brooks and Dunn  - My Maria (dance mix)
TTITLE18=Luther - Red 'The Rogaine Rooster'
EXTD=
EXTT0=
EXTT1=
EXTT2=
EXTT3=
EXTT4=
EXTT5=
EXTT6=
EXTT7=
EXTT8=
EXTT9=
EXTT10=
EXTT11=
EXTT12=
EXTT13=
EXTT14=
EXTT15=
EXTT16=
EXTT17=
EXTT18=
PLAYORDER=
